# xmcd
#
# Track frame offsets:
#	150
#	13893
#	27138
#	43387
#	62679
#	81481
#	92366
#	109147
#	126278
#	148845
#	164576
#	179836
#	197659
#	218522
#
# Disc length: 3117 seconds
#
# Revision: 0
# Processed by: cddbd v1.5.2PL0 Copyright (c) Steve Scherf et al.
# Submitted via: dBpowerAMP V4.0
#
DISCID=cf0c2b0e
DTITLE=Norbert Schneiders R&B Caravan - fresh cuts
DYEAR=2008
DGENRE=Blues
TTITLE0=Sugar Papa Steiner
TTITLE1=Game of love
TTITLE2=Spinning
TTITLE3=The day you came around
TTITLE4=You better quit it
TTITLE5=The bluff
TTITLE6=Take it easy
TTITLE7=I don`t care
TTITLE8=Hooked on you
TTITLE9=Burn the whole town down
TTITLE10=Stop eatin` the trash
TTITLE11=VBS bounce
TTITLE12=I go
TTITLE13=Am I still your man
EXTD=
EXTT0=
EXTT1=
EXTT2=
EXTT3=
EXTT4=
EXTT5=
EXTT6=
EXTT7=
EXTT8=
EXTT9=
EXTT10=
EXTT11=
EXTT12=
EXTT13=
PLAYORDER=
